<svg width="508" height="163" viewBox="0 0 508 163" fill="none" xmlns="http://www.w3.org/2000/svg">
<path d="M-0.000466673 13.3796H29.2367L31.3841 84.0774H31.7144L62.2731 13.3796H91.6754L92.171 84.0774H92.5013L121.408 13.3796H153.453L99.9345 129.007H68.0544L69.0455 50.5455H68.7152L36.8351 129.007H5.12017L-0.000466673 13.3796ZM157.623 38.1568H185.704L166.378 129.007H138.297L157.623 38.1568ZM165.221 0.825761H193.963L188.512 26.4289H159.77L165.221 0.825761ZM236.526 132.145C230.469 132.145 225.403 130.824 221.329 128.181C217.254 125.428 214.061 121.739 211.748 117.114H211.418C210.978 120.748 210.427 123.996 209.766 126.859L209.271 129.007H181.85L209.271 -0.000147555H236.856L227.936 42.4516C227.275 44.9844 226.615 47.5171 225.954 50.0499H226.284C229.808 45.0945 233.993 41.3504 238.838 38.8176C243.684 36.2848 248.969 35.0184 254.696 35.0184C260.642 35.0184 265.928 36.3398 270.553 38.9828C275.178 41.6257 278.812 45.59 281.455 50.8758C284.098 56.0515 285.419 62.2734 285.419 69.5414C285.419 78.7916 283.492 88.3171 279.638 98.1178C275.784 107.809 270.113 115.902 262.624 122.4C255.246 128.897 246.547 132.145 236.526 132.145ZM229.588 111.663C235.535 111.663 240.435 109.24 244.289 104.395C248.254 99.5494 251.172 93.8782 253.044 87.381C254.916 80.8839 255.852 75.1025 255.852 70.0369C255.852 66.8434 255.356 64.2005 254.365 62.1082C253.484 59.9058 252.108 58.254 250.236 57.1528C248.364 56.0515 246.051 55.5009 243.298 55.5009C237.682 55.5009 232.892 57.8685 228.927 62.6038C224.963 67.339 221.99 73.0102 220.007 79.6175C218.025 86.1146 217.034 91.9511 217.034 97.1267C217.034 100.32 217.475 103.018 218.356 105.221C219.347 107.313 220.778 108.91 222.65 110.011C224.522 111.112 226.835 111.663 229.588 111.663ZM304.899 38.1568H332.98L313.654 129.007H285.573L304.899 38.1568ZM312.498 0.825761H341.239L335.788 26.4289H307.047L312.498 0.825761ZM358.69 28.0808C360.783 18.6103 364.527 11.5626 369.923 6.93749C375.429 2.3124 383.192 -0.000147555 393.213 -0.000147555H419.312L414.852 21.1431H400.812C396.627 21.1431 393.269 22.2443 390.736 24.4468C388.203 26.5391 386.441 29.9528 385.45 34.688L365.463 129.007H337.217L358.69 28.0808ZM341.016 38.1568H404.611L399.986 59.4653H336.391L341.016 38.1568ZM386.817 140.735H414.237L425.304 124.051L408.951 38.1568H437.032L445.291 92.0061H445.621L477.336 38.1568H507.234L435.215 155.766C433.893 158.079 432.297 159.676 430.425 160.557C428.663 161.548 426.515 162.043 423.982 162.043H382.522L386.817 140.735Z" fill="url(#paint0_linear_372_9)"/>
<defs>
<linearGradient id="paint0_linear_372_9" x1="241.336" y1="75.0068" x2="241.336" y2="127.995" gradientUnits="userSpaceOnUse">
<stop stop-color="#141414"/>
<stop offset="1"/>
</linearGradient>
</defs>
</svg>
